<svg xmlns="http://www.w3.org/2000/svg" viewBox="0 0 823 120">
  <g transform="translate(0 10) scale(0.4167)">
  <circle cx="120" cy="120" r="112" fill="#D9331F"/>
  <g fill="#FFF7E8">
    <circle cx="199.4" cy="144.3" r="16.5"/>
    <circle cx="196.1" cy="86.8"  r="16.5"/>
    <circle cx="156.3" cy="45.3"  r="16.5"/>
    <circle cx="98.9"  cy="39.7"  r="16.5"/>
    <circle cx="51.8"  cy="72.7"  r="16.5"/>
    <circle cx="37.4"  cy="128.5" r="16.5"/>
    <circle cx="62.8"  cy="180.1" r="16.5"/>
    <circle cx="115.7" cy="202.9" r="16.5"/>
  </g>
  <g transform="translate(171.6 193.7) rotate(55)">
    <rect x="-17" y="-6.5" width="34" height="13" rx="6.5" fill="#FFF7E8"/>
  </g>
  <path fill="#FFF7E8" d="M120 157c-15-12.5-38-28.6-38-47.2C82 96.3 92.6 86 105.6 86c5.7 0 11 2.2 14.4 6.1C123.4 88.2 128.7 86 134.4 86 147.4 86 158 96.3 158 109.8c0 18.6-23 34.7-38 47.2z"/>
</g>
  <g transform="translate(134 96)"><path fill="#3B241C" d="M64.5 -20.150000000000002Q64.5 -16.6 62.650000000000006 -12.900000000000002Q60.800000000000004 -9.200000000000001 57.22500000000001 -6.050000000000001Q53.650000000000006 -2.9000000000000004 48.400000000000006 -0.9500000000000002Q43.150000000000006 1.0 36.300000000000004 1.0Q26.1 1.0 18.5 -3.575Q10.9 -8.15 6.7250000000000005 -16.275000000000002Q2.5500000000000003 -24.400000000000002 2.5500000000000003 -35.1Q2.5500000000000003 -42.7 5.075 -49.25Q7.6000000000000005 -55.800000000000004 12.05 -60.675Q16.5 -65.55 22.375 -68.275Q28.25 -71.0 35.0 -71.0Q39.400000000000006 -71.0 42.0 -70.25Q44.6 -69.5 46.2 -68.725Q47.800000000000004 -67.95 49.2 -67.95Q50.6 -67.95 51.475 -68.725Q52.35 -69.5 53.25 -70.25Q54.150000000000006 -71.0 55.6 -71.0Q56.95 -71.0 57.775000000000006 -70.075Q58.6 -69.15 59.45 -66.0L63.75 -50.050000000000004Q64.25 -48.2 63.275000000000006 -46.575Q62.300000000000004 -44.95 60.150000000000006 -44.550000000000004Q58.150000000000006 -44.2 56.5 -44.95Q54.85 -45.7 53.800000000000004 -48.1Q51.550000000000004 -53.35 49.275000000000006 -56.3Q47.0 -59.25 44.425 -60.45Q41.85 -61.650000000000006 38.6 -61.650000000000006Q35.1 -61.650000000000006 32.5 -59.925000000000004Q29.900000000000002 -58.2 28.175000000000004 -55.025000000000006Q26.450000000000003 -51.85 25.6 -47.5Q24.75 -43.150000000000006 24.75 -37.95Q24.75 -29.950000000000003 27.05 -24.425000000000004Q29.35 -18.900000000000002 33.425 -16.05Q37.5 -13.200000000000001 42.900000000000006 -13.200000000000001Q46.900000000000006 -13.200000000000001 50.400000000000006 -15.25Q53.900000000000006 -17.3 57.2 -21.200000000000003Q59.0 -23.200000000000003 60.25 -23.675000000000004Q61.5 -24.150000000000002 62.650000000000006 -23.75Q63.650000000000006 -23.450000000000003 64.075 -22.5Q64.5 -21.55 64.5 -20.150000000000002Z M94.4 -8.0V-9.4L92.65 -9.5V-35.2Q92.65 -36.9 91.92500000000001 -37.900000000000006Q91.20000000000002 -38.900000000000006 89.80000000000001 -38.900000000000006Q88.85000000000001 -38.900000000000006 88.10000000000001 -38.375Q87.35000000000001 -37.85 87.35000000000001 -36.9V-34.550000000000004Q87.35000000000001 -30.5 84.9 -28.375Q82.45000000000002 -26.25 77.85000000000001 -26.25Q73.55000000000001 -26.25 71.55000000000001 -28.075000000000003Q69.55000000000001 -29.900000000000002 69.55000000000001 -33.1Q69.55000000000001 -36.35 72.20000000000002 -39.25Q74.85000000000001 -42.150000000000006 80.15 -43.97500000000001Q85.45000000000002 -45.800000000000004 93.35000000000001 -45.800000000000004Q103.0 -45.800000000000004 107.30000000000001 -42.25Q111.60000000000001 -38.7 111.60000000000001 -32.5V-12.950000000000001Q111.60000000000001 -12.3 111.92500000000001 -11.725000000000001Q112.25000000000001 -11.15 113.15 -11.15Q113.60000000000001 -11.15 113.92500000000001 -11.3Q114.25000000000001 -11.450000000000001 114.55000000000001 -11.65Q114.80000000000001 -11.8 115.12500000000001 -11.925Q115.45000000000002 -12.05 115.85000000000001 -12.05Q116.85000000000001 -12.05 117.4 -11.125Q117.95000000000002 -10.200000000000001 117.95000000000002 -8.950000000000001Q117.95000000000002 -6.6000000000000005 116.50000000000001 -4.300000000000001Q115.05000000000001 -2.0 112.37500000000001 -0.5Q109.70000000000002 1.0 106.00000000000001 1.0Q101.05000000000001 1.0 97.72500000000001 -1.5500000000000003Q94.4 -4.1000000000000005 94.4 -8.0ZM68.05000000000001 -10.350000000000001Q68.05000000000001 -17.2 73.57500000000002 -21.0Q79.10000000000001 -24.8 88.80000000000001 -24.8Q90.9 -24.8 92.70000000000002 -24.55Q94.50000000000001 -24.3 95.60000000000001 -23.8L93.75000000000001 -18.150000000000002Q92.95000000000002 -18.7 92.30000000000001 -18.9Q91.65 -19.1 90.75000000000001 -19.1Q89.05000000000001 -19.1 88.025 -17.775Q87.00000000000001 -16.45 87.00000000000001 -14.25Q87.00000000000001 -12.05 88.07500000000002 -10.8Q89.15 -9.55 91.10000000000001 -9.55Q92.25000000000001 -9.55 93.15 -10.0Q94.05000000000001 -10.450000000000001 94.4 -10.950000000000001L95.50000000000001 -5.45Q93.65 -2.4000000000000004 89.72500000000001 -0.7000000000000002Q85.80000000000001 1.0 81.25000000000001 1.0Q75.05000000000001 1.0 71.55000000000001 -2.2Q68.05000000000001 -5.4 68.05000000000001 -10.350000000000001Z M141.75 -71.35000000000001V-13.3Q141.75 -10.850000000000001 142.025 -9.975000000000001Q142.3 -9.1 142.85 -8.65L143.35 -8.200000000000001Q144.4 -7.3500000000000005 144.95 -6.425000000000001Q145.5 -5.5 145.5 -4.05Q145.5 -2.15 144.375 -1.075Q143.25 0.0 141.35 0.0H123.2Q121.3 0.0 120.175 -1.075Q119.05 -2.15 119.05 -4.05Q119.05 -5.5 119.6 -6.425000000000001Q120.15 -7.3500000000000005 121.2 -8.200000000000001L121.7 -8.65Q122.25 -9.1 122.525 -9.975000000000001Q122.8 -10.850000000000001 122.8 -13.3V-57.550000000000004Q122.8 -59.5 122.425 -60.3Q122.05 -61.1 121.2 -61.650000000000006L120.75 -61.95Q119.55 -62.75 119.05 -63.550000000000004Q118.55 -64.35000000000001 118.55 -65.60000000000001Q118.55 -67.05 119.4 -68.1Q120.25 -69.15 122.4 -70.05L131.35 -73.7Q133.9 -74.75 135.35000000000002 -75.125Q136.8 -75.5 138.05 -75.5Q139.9 -75.5 140.825 -74.35Q141.75 -73.2 141.75 -71.35000000000001Z M170.5 -71.35000000000001V-13.3Q170.5 -10.850000000000001 170.775 -9.975000000000001Q171.05 -9.1 171.6 -8.65L172.1 -8.200000000000001Q173.15 -7.3500000000000005 173.7 -6.425000000000001Q174.25 -5.5 174.25 -4.05Q174.25 -2.15 173.125 -1.075Q172.0 0.0 170.1 0.0H151.95Q150.05 0.0 148.925 -1.075Q147.8 -2.15 147.8 -4.05Q147.8 -5.5 148.35000000000002 -6.425000000000001Q148.9 -7.3500000000000005 149.95 -8.200000000000001L150.45 -8.65Q151.0 -9.1 151.275 -9.975000000000001Q151.55 -10.850000000000001 151.55 -13.3V-57.550000000000004Q151.55 -59.5 151.175 -60.3Q150.8 -61.1 149.95 -61.650000000000006L149.5 -61.95Q148.3 -62.75 147.8 -63.550000000000004Q147.3 -64.35000000000001 147.3 -65.60000000000001Q147.3 -67.05 148.15 -68.1Q149.0 -69.15 151.15 -70.05L160.1 -73.7Q162.65 -74.75 164.10000000000002 -75.125Q165.55 -75.5 166.8 -75.5Q168.65 -75.5 169.575 -74.35Q170.5 -73.2 170.5 -71.35000000000001Z M245.3 -20.05 229.2 -17.5 211.0 -54.150000000000006Q209.6 -56.95 208.925 -57.875Q208.25 -58.800000000000004 207.25 -59.400000000000006L205.9 -60.2Q204.6 -61.0 204.0 -62.225Q203.4 -63.45 203.4 -65.10000000000001Q203.4 -67.4 204.7 -68.7Q206.0 -70.0 208.75 -70.0H233.35Q236.1 -70.0 237.39999999999998 -68.7Q238.7 -67.4 238.7 -65.10000000000001Q238.7 -61.650000000000006 235.65 -59.900000000000006L234.95 -59.5Q232.95 -58.400000000000006 232.77499999999998 -57.125Q232.6 -55.85 234.05 -52.85L246.3 -27.900000000000002L235.55 -23.1L250.6 -54.35Q251.6 -56.45 251.39999999999998 -57.575Q251.2 -58.7 249.7 -59.550000000000004L248.55 -60.2Q247.35 -60.900000000000006 246.7 -62.075Q246.05 -63.25 246.05 -65.10000000000001Q246.05 -67.4 247.35000000000002 -68.7Q248.65 -70.0 251.4 -70.0H263.7Q266.5 -70.0 267.775 -68.67500000000001Q269.05 -67.35000000000001 269.05 -65.10000000000001Q269.05 -63.5 268.475 -62.35Q267.9 -61.2 266.6 -60.300000000000004L265.95 -59.85Q265.1 -59.25 264.45000000000005 -58.6Q263.8 -57.95 263.05 -56.7Q262.3 -55.45 261.1 -53.0ZM225.8 -26.55H247.35V-15.3Q247.35 -13.65 247.85 -12.725000000000001Q248.35 -11.8 249.75 -11.0L251.25 -10.15Q254.35 -8.450000000000001 254.35 -4.9Q254.35 -2.5500000000000003 253.0 -1.2750000000000001Q251.65 0.0 249.0 0.0H224.15Q221.55 0.0 220.175 -1.2750000000000001Q218.8 -2.5500000000000003 218.8 -4.9Q218.8 -8.450000000000001 221.9 -10.15L223.4 -11.0Q224.8 -11.8 225.3 -12.725000000000001Q225.8 -13.65 225.8 -15.3Z M296.2 -45.800000000000004Q303.59999999999997 -45.800000000000004 309.04999999999995 -42.800000000000004Q314.5 -39.800000000000004 317.5 -34.5Q320.5 -29.200000000000003 320.5 -22.25Q320.5 -15.9 317.375 -10.65Q314.25 -5.4 308.625 -2.2750000000000004Q303.0 0.8500000000000001 295.5 0.8500000000000001Q288.15 0.8500000000000001 282.67499999999995 -2.1500000000000004Q277.2 -5.15 274.2 -10.45Q271.2 -15.75 271.2 -22.700000000000003Q271.2 -29.1 274.325 -34.325Q277.45 -39.550000000000004 283.075 -42.675000000000004Q288.7 -45.800000000000004 296.2 -45.800000000000004ZM299.45 -8.55Q300.75 -8.9 301.4 -10.55Q302.05 -12.200000000000001 301.85 -15.400000000000002Q301.65 -18.6 300.34999999999997 -23.650000000000002Q299.09999999999997 -28.75 297.72499999999997 -31.650000000000002Q296.34999999999997 -34.550000000000004 294.95 -35.650000000000006Q293.55 -36.75 292.25 -36.4Q290.95 -36.050000000000004 290.29999999999995 -34.400000000000006Q289.65 -32.75 289.875 -29.55Q290.09999999999997 -26.35 291.34999999999997 -21.3Q292.65 -16.25 294.0 -13.325Q295.34999999999997 -10.4 296.75 -9.3Q298.15 -8.200000000000001 299.45 -8.55Z M354.7 -8.25V-9.9L354.15000000000003 -10.0V-27.85Q354.15000000000003 -29.8 353.77500000000003 -30.6Q353.40000000000003 -31.400000000000002 352.55 -31.950000000000003L352.1 -32.25Q350.90000000000003 -33.050000000000004 350.40000000000003 -33.85Q349.90000000000003 -34.65 349.90000000000003 -35.9Q349.90000000000003 -37.35 350.75 -38.400000000000006Q351.6 -39.45 353.75 -40.35L362.70000000000005 -44.0Q365.25 -45.050000000000004 366.70000000000005 -45.425000000000004Q368.15000000000003 -45.800000000000004 369.40000000000003 -45.800000000000004Q371.25 -45.800000000000004 372.175 -44.650000000000006Q373.1 -43.5 373.1 -41.650000000000006V-13.3Q373.1 -10.850000000000001 373.375 -9.975000000000001Q373.65000000000003 -9.1 374.20000000000005 -8.65L374.70000000000005 -8.200000000000001Q375.75 -7.3500000000000005 376.3 -6.425000000000001Q376.85 -5.5 376.85 -4.05Q376.85 -2.15 375.725 -1.075Q374.6 0.0 372.70000000000005 0.0H363.15000000000003Q359.1 0.0 356.9 -2.375Q354.7 -4.75 354.7 -8.25ZM326.65000000000003 -13.5V-27.85Q326.65000000000003 -29.8 326.27500000000003 -30.6Q325.90000000000003 -31.400000000000002 325.05 -31.950000000000003L324.6 -32.25Q323.40000000000003 -33.050000000000004 322.90000000000003 -33.85Q322.40000000000003 -34.65 322.40000000000003 -35.9Q322.40000000000003 -37.35 323.25 -38.400000000000006Q324.1 -39.45 326.25 -40.35L335.2 -44.0Q337.75 -45.050000000000004 339.20000000000005 -45.425000000000004Q340.65000000000003 -45.800000000000004 341.90000000000003 -45.800000000000004Q343.75 -45.800000000000004 344.675 -44.650000000000006Q345.6 -43.5 345.6 -41.650000000000006V-18.3Q345.6 -15.5 346.65 -14.025Q347.7 -12.55 349.55 -12.55Q350.85 -12.55 352.025 -13.100000000000001Q353.2 -13.65 354.3 -14.700000000000001L355.7 -16.05L359.05 -11.65L357.15000000000003 -9.600000000000001Q351.40000000000003 -3.4000000000000004 346.95000000000005 -1.0500000000000003Q342.5 1.3 338.45 1.3Q332.95 1.3 329.8 -2.6250000000000004Q326.65000000000003 -6.550000000000001 326.65000000000003 -13.5Z M399.95000000000005 -24.3Q399.95000000000005 -31.8 401.625 -36.550000000000004Q403.3 -41.300000000000004 406.20000000000005 -43.550000000000004Q409.1 -45.800000000000004 412.85 -45.800000000000004Q417.3 -45.800000000000004 419.775 -42.775000000000006Q422.25 -39.75 422.25 -33.65Q422.25 -27.6 419.975 -24.775000000000002Q417.70000000000005 -21.950000000000003 414.0 -21.950000000000003Q410.1 -21.950000000000003 408.15000000000003 -23.75Q406.20000000000005 -25.55 406.20000000000005 -28.700000000000003V-30.75Q406.20000000000005 -32.0 405.80000000000007 -32.575Q405.40000000000003 -33.15 404.6 -33.15Q403.8 -33.15 403.175 -32.325Q402.55 -31.5 402.225 -29.85Q401.90000000000003 -28.200000000000003 401.90000000000003 -25.700000000000003ZM400.75 -41.050000000000004 401.90000000000003 -32.1V-13.3Q401.90000000000003 -11.100000000000001 402.45000000000005 -10.0Q403.0 -8.9 404.3 -8.65L406.95000000000005 -8.200000000000001Q408.70000000000005 -7.9 409.5 -6.775Q410.3 -5.65 410.3 -4.05Q410.3 -2.25 409.20000000000005 -1.125Q408.1 0.0 406.0 0.0H383.35Q381.45000000000005 0.0 380.32500000000005 -1.075Q379.20000000000005 -2.15 379.20000000000005 -4.05Q379.20000000000005 -5.5 379.75 -6.425000000000001Q380.3 -7.3500000000000005 381.35 -8.200000000000001L381.85 -8.65Q382.40000000000003 -9.15 382.67500000000007 -10.0Q382.95000000000005 -10.850000000000001 382.95000000000005 -13.3V-27.85Q382.95000000000005 -29.8 382.57500000000005 -30.6Q382.20000000000005 -31.400000000000002 381.35 -31.950000000000003L380.90000000000003 -32.25Q379.70000000000005 -33.050000000000004 379.20000000000005 -33.85Q378.70000000000005 -34.65 378.70000000000005 -35.9Q378.70000000000005 -37.35 379.57500000000005 -38.425Q380.45000000000005 -39.5 382.55 -40.35L391.95000000000005 -44.2Q394.0 -45.050000000000004 395.425 -45.425000000000004Q396.85 -45.800000000000004 397.75 -45.800000000000004Q399.0 -45.800000000000004 399.70000000000005 -44.85000000000001Q400.40000000000003 -43.900000000000006 400.75 -41.050000000000004Z M502.35 -18.3 493.5 -17.95 507.95 -61.0Q509.8 -66.5 512.075 -68.25Q514.35 -70.0 518.25 -70.0H535.0Q537.8 -70.0 539.075 -68.7Q540.35 -67.4 540.35 -65.10000000000001Q540.35 -63.35 539.675 -62.075Q539.0 -60.800000000000004 537.35 -59.85L535.85 -59.0Q534.4 -58.2 533.8499999999999 -57.275000000000006Q533.3 -56.35 533.4 -54.550000000000004L535.9 -15.3Q536.05 -13.350000000000001 536.575 -12.475000000000001Q537.1 -11.600000000000001 538.2 -11.0L539.65 -10.15Q540.95 -9.5 541.675 -8.3Q542.4 -7.1000000000000005 542.4 -5.2Q542.4 -2.9000000000000004 541.0999999999999 -1.4500000000000002Q539.8 0.0 537.05 0.0H513.35Q510.6 0.0 509.3 -1.3Q508.0 -2.6 508.0 -4.9Q508.0 -6.65 508.725 -7.95Q509.45 -9.25 511.05 -10.15L512.55 -11.0Q513.75 -11.700000000000001 514.225 -12.525000000000002Q514.7 -13.350000000000001 514.55 -15.3L511.2 -60.85L518.55 -60.95L500.3 -9.600000000000001Q498.5 -4.6000000000000005 496.775 -3.1000000000000005Q495.05 -1.6 492.45 -1.6Q490.6 -1.6 489.125 -2.1Q487.65 -2.6 486.35 -4.4Q485.05 -6.2 483.6 -10.100000000000001L465.85 -58.85L472.55 -59.550000000000004L469.35 -15.65Q469.25 -13.950000000000001 469.75 -12.925Q470.25 -11.9 472.05 -10.600000000000001L473.5 -9.55Q474.45 -8.9 475.025 -7.800000000000001Q475.6 -6.7 475.6 -5.1000000000000005Q475.6 -2.75 474.32500000000005 -1.375Q473.05 0.0 470.25 0.0H457.35Q454.6 0.0 453.3 -1.3Q452.0 -2.6 452.0 -4.9Q452.0 -6.8500000000000005 452.85 -8.1Q453.7 -9.35 455.5 -10.4L456.55 -11.0Q457.55 -11.55 458.175 -12.450000000000001Q458.8 -13.350000000000001 458.95 -15.3L461.9 -54.7Q462.0 -56.35 461.55 -57.2Q461.1 -58.050000000000004 459.45 -59.0L458.0 -59.85Q456.2 -60.900000000000006 455.54999999999995 -62.075Q454.9 -63.25 454.9 -65.10000000000001Q454.9 -70.0 460.25 -70.0H476.9Q480.6 -70.0 482.95000000000005 -68.17500000000001Q485.3 -66.35000000000001 487.15 -61.0Z M570.4 -45.800000000000004Q577.8 -45.800000000000004 583.25 -42.800000000000004Q588.6999999999999 -39.800000000000004 591.6999999999999 -34.5Q594.6999999999999 -29.200000000000003 594.6999999999999 -22.25Q594.6999999999999 -15.9 591.5749999999999 -10.65Q588.4499999999999 -5.4 582.8249999999999 -2.2750000000000004Q577.1999999999999 0.8500000000000001 569.6999999999999 0.8500000000000001Q562.35 0.8500000000000001 556.875 -2.1500000000000004Q551.4 -5.15 548.4 -10.45Q545.4 -15.75 545.4 -22.700000000000003Q545.4 -29.1 548.525 -34.325Q551.65 -39.550000000000004 557.275 -42.675000000000004Q562.9 -45.800000000000004 570.4 -45.800000000000004ZM573.65 -8.55Q574.9499999999999 -8.9 575.5999999999999 -10.55Q576.25 -12.200000000000001 576.05 -15.400000000000002Q575.85 -18.6 574.55 -23.650000000000002Q573.3 -28.75 571.925 -31.650000000000002Q570.55 -34.550000000000004 569.15 -35.650000000000006Q567.75 -36.75 566.4499999999999 -36.4Q565.15 -36.050000000000004 564.5 -34.400000000000006Q563.85 -32.75 564.075 -29.55Q564.3 -26.35 565.55 -21.3Q566.85 -16.25 568.2 -13.325Q569.55 -10.4 570.95 -9.3Q572.35 -8.200000000000001 573.65 -8.55Z M620.8 -41.650000000000006V-13.3Q620.8 -10.700000000000001 621.0 -9.700000000000001Q621.2 -8.700000000000001 621.8 -8.15L622.4 -7.6000000000000005Q624.0 -6.15 624.0 -4.05Q624.0 0.0 620.3 0.0H602.25Q600.35 0.0 599.225 -1.075Q598.1 -2.15 598.1 -4.05Q598.1 -5.5 598.6500000000001 -6.425000000000001Q599.2 -7.3500000000000005 600.25 -8.200000000000001L600.75 -8.65Q601.3 -9.1 601.575 -9.975000000000001Q601.85 -10.850000000000001 601.85 -13.3V-27.85Q601.85 -29.8 601.475 -30.6Q601.1 -31.400000000000002 600.25 -31.950000000000003L599.8 -32.25Q598.6 -33.050000000000004 598.1 -33.85Q597.6 -34.65 597.6 -35.9Q597.6 -37.35 598.45 -38.400000000000006Q599.3 -39.45 601.45 -40.35L610.4 -44.0Q612.95 -45.050000000000004 614.4000000000001 -45.425000000000004Q615.85 -45.800000000000004 617.1 -45.800000000000004Q618.95 -45.800000000000004 619.875 -44.650000000000006Q620.8 -43.5 620.8 -41.650000000000006ZM619.25 -28.450000000000003 615.9 -32.550000000000004 617.8 -34.6Q623.7 -41.0 628.225 -43.400000000000006Q632.75 -45.800000000000004 636.75 -45.800000000000004Q642.4 -45.800000000000004 645.5999999999999 -41.900000000000006Q648.8 -38.0 648.8 -31.0V-13.3Q648.8 -10.700000000000001 649.0 -9.700000000000001Q649.2 -8.700000000000001 649.8 -8.15L650.4 -7.6000000000000005Q652.0 -6.15 652.0 -4.05Q652.0 0.0 648.3 0.0H630.35Q626.65 0.0 626.65 -4.05Q626.65 -6.15 628.25 -7.6000000000000005L628.85 -8.15Q629.45 -8.700000000000001 629.6500000000001 -9.700000000000001Q629.85 -10.700000000000001 629.85 -13.3V-26.200000000000003Q629.85 -29.0 628.7750000000001 -30.475Q627.7 -31.950000000000003 625.65 -31.950000000000003Q624.3 -31.950000000000003 623.025 -31.400000000000002Q621.75 -30.85 620.65 -29.8ZM647.2 -28.450000000000003 643.9 -32.5 645.85 -34.550000000000004Q651.75 -40.800000000000004 656.025 -43.300000000000004Q660.3 -45.800000000000004 664.45 -45.800000000000004Q669.8 -45.800000000000004 672.275 -42.60000000000001Q674.75 -39.400000000000006 675.3 -33.85L677.4 -13.3Q677.65 -10.9 677.825 -10.025Q678.0 -9.15 678.5 -8.65L679.0 -8.200000000000001Q680.0 -7.300000000000001 680.6 -6.4Q681.2 -5.5 681.2 -4.05Q681.2 -2.15 680.075 -1.075Q678.95 0.0 677.05 0.0H658.85Q655.15 0.0 655.15 -4.05Q655.15 -6.1000000000000005 656.8 -7.6000000000000005L657.4 -8.15Q658.0 -8.700000000000001 658.325 -9.600000000000001Q658.65 -10.5 658.4 -12.8L656.9 -26.150000000000002Q656.55 -29.05 655.7 -30.5Q654.85 -31.950000000000003 652.95 -31.950000000000003Q651.9 -31.950000000000003 650.8499999999999 -31.400000000000002Q649.8 -30.85 648.65 -29.8Z"/></g>
</svg>