<svg xmlns="http://www.w3.org/2000/svg" viewBox="0 0 240 240">
  <circle cx="120" cy="120" r="112" fill="#D9331F"/>
  <g fill="#FFF7E8">
    <circle cx="199.4" cy="144.3" r="16.5"/>
    <circle cx="196.1" cy="86.8"  r="16.5"/>
    <circle cx="156.3" cy="45.3"  r="16.5"/>
    <circle cx="98.9"  cy="39.7"  r="16.5"/>
    <circle cx="51.8"  cy="72.7"  r="16.5"/>
    <circle cx="37.4"  cy="128.5" r="16.5"/>
    <circle cx="62.8"  cy="180.1" r="16.5"/>
    <circle cx="115.7" cy="202.9" r="16.5"/>
  </g>
  <g transform="translate(171.6 193.7) rotate(55)">
    <rect x="-17" y="-6.5" width="34" height="13" rx="6.5" fill="#FFF7E8"/>
  </g>
  <path fill="#FFF7E8" d="M120 157c-15-12.5-38-28.6-38-47.2C82 96.3 92.6 86 105.6 86c5.7 0 11 2.2 14.4 6.1C123.4 88.2 128.7 86 134.4 86 147.4 86 158 96.3 158 109.8c0 18.6-23 34.7-38 47.2z"/>
</svg>
